<svg xmlns="http://www.w3.org/2000/svg" xmlns:xlink="http://www.w3.org/1999/xlink" viewBox="0 0 924.39 734.25"><defs><style>.a{fill:none;}.b{font-size:137.05px;}.ak,.b{fill:#2964aa;font-family:ProximaNova-Semibold, Proxima Nova;}.ak,.c,.d{font-weight:700;}.d{letter-spacing:-0.04em;}.e{font-family:ProximaNova-Light, Proxima Nova;}.f{clip-path:url(#a);}.g{clip-path:url(#b);}.h{fill:url(#c);}.i{clip-path:url(#d);}.j{fill:url(#e);}.k{clip-path:url(#f);}.l{fill:url(#g);}.m{clip-path:url(#h);}.n{fill:url(#i);}.o{clip-path:url(#j);}.p{fill:url(#k);}.q{clip-path:url(#l);}.r{fill:url(#m);}.s{clip-path:url(#n);}.t{fill:url(#o);}.u{clip-path:url(#p);}.v{fill:url(#q);}.w{clip-path:url(#r);}.x{fill:url(#s);}.y{clip-path:url(#t);}.z{fill:url(#u);}.aa{clip-path:url(#v);}.ab{fill:url(#w);}.ac{clip-path:url(#x);}.ad{fill:url(#y);}.ae{clip-path:url(#z);}.af{fill:url(#aa);}.ag{clip-path:url(#ab);}.ah{fill:url(#ac);}.ai{clip-path:url(#ad);}.aj{fill:url(#ae);}.ak{font-size:58.93px;letter-spacing:0.13em;}.al{letter-spacing:0.03em;}.am{letter-spacing:0.13em;}.an{letter-spacing:0.13em;}.ao{letter-spacing:0.12em;}</style><clipPath id="a" transform="translate(-287.02 -446.87)"><rect class="a" x="407.52" y="352.31" width="678.74" height="714.46"/></clipPath><clipPath id="b" transform="translate(-287.02 -446.87)"><path class="a" d="M746.15,845.3c33.28-33.15,62.87-27.57,97.5-58.33-117,4.75-197,29.43-258.83,131.85,191.75,47.09,337.72-23.73,376.65-224.14C911,778.06,831.89,847.47,746.15,845.3"/></clipPath><linearGradient id="c" x1="6.77" y1="4.26" x2="8.56" y2="4.26" gradientTransform="matrix(0, 133.33, 133.33, 0, -82.32, -655.19)" gradientUnits="userSpaceOnUse"><stop offset="0" stop-color="#5871a9"/><stop offset="0.95" stop-color="#0a59a7"/><stop offset="1" stop-color="#0a59a7"/></linearGradient><clipPath id="d" transform="translate(-287.02 -446.87)"><path class="a" d="M750.08,846.29c74.43,0,152.42-54.7,209.43-146.61-30.87,149.8-125.44,232.21-266.79,232.21-33.29,0-69.09-4.6-106.43-13.67C648,816.74,729.63,792.87,841,788c-15.74,13.41-30.61,19.57-45,25.54-16.25,6.73-33,13.69-50.51,31.07l-1.56,1.56,2.2,0c1.31,0,2.63,0,3.94,0Zm210.58-152.1C903.77,788.26,825,844.42,750.07,844.41h-1.65c16.58-16,32-22.36,48.3-29.11,15.16-6.28,30.83-12.77,47.55-27.62l2-1.75-2.63.11c-65.85,2.68-112.26,11.74-150.46,29.39C648.66,836,614,868.67,584,918.34l-.67,1.09,1.24.31c37.94,9.31,74.32,14,108.13,14,70.21,0,129-19.85,174.79-59,47.69-40.79,79.61-101.32,94.88-179.9l1-5.19Z"/></clipPath><linearGradient id="e" x1="6.59" y1="4.16" x2="8.38" y2="4.16" gradientTransform="matrix(0, 136.66, 136.66, 0, -82.19, -657.99)" xlink:href="#c"/><clipPath id="f" transform="translate(-287.02 -446.87)"><path class="a" d="M652.34,618.69c-59.39-67.82-125.71-47-125.71-47,8.48,3.2,40.33,22.64,40.33,22.64,55.92,41.24,80.42,162.44,80.42,162.44C687.9,546.25,754,498.32,754,498.32c-67.46,8.92-101.69,120.37-101.69,120.37"/></clipPath><linearGradient id="g" x1="5.64" y1="3.52" x2="7.43" y2="3.52" gradientTransform="matrix(0, 144.68, 144.68, 0, -156.68, -765.13)" xlink:href="#c"/><clipPath id="h" transform="translate(-287.02 -446.87)"><path class="a" d="M653.24,619c.33-1.09,33.66-107.3,97.59-119.2-5.52,4.94-19.06,18.8-35.74,48.37-19.47,34.52-46.92,97.83-67.77,204C642.23,730,617,630.07,567.44,593.52c-1.19-.73-27.13-16.55-38-21.63a98.76,98.76,0,0,1,21.87-2.3c25.89,0,64.3,8.63,100.28,49.72l1.1,1.26ZM753.91,497.4C691,505.71,656.49,603.24,652,616.85c-36.12-40.56-74.58-49.12-100.6-49.12-15.11,0-24.61,2.92-25,3l-2.57.8,2.53,1c8.29,3.13,39.84,22.37,40.09,22.52,55,40.55,79.82,160.66,80.06,161.87l.94,4.63.89-4.64c40-207.55,105.63-257.37,106.29-257.85l3-2.15Z"/></clipPath><linearGradient id="i" x1="5.51" y1="3.44" x2="7.29" y2="3.44" gradientTransform="matrix(0, 148.17, 148.17, 0, -156.49, -765.91)" xlink:href="#c"/><clipPath id="j" transform="translate(-287.02 -446.87)"><path class="a" d="M625.89,540.64a21,21,0,0,0,0,30.22,22.25,22.25,0,0,0,31-.16,21,21,0,0,0,.06-30.24,21.91,21.91,0,0,0-15.34-6.17,22.27,22.27,0,0,0-15.63,6.35"/></clipPath><linearGradient id="k" x1="34.77" y1="21.32" x2="36.56" y2="21.32" gradientTransform="matrix(0, 23.94, 23.94, 0, -156.11, -744.99)" xlink:href="#c"/><clipPath id="l" transform="translate(-287.02 -446.87)"><path class="a" d="M626.49,570.19a19.85,19.85,0,0,1-6.1-14.31,20.22,20.22,0,0,1,6.15-14.57,21.23,21.23,0,0,1,15-6.09,21,21,0,0,1,14.69,5.91,19.94,19.94,0,0,1,6.1,14.34A20.21,20.21,0,0,1,656.15,570a21.2,21.2,0,0,1-15,6.09,21,21,0,0,1-14.7-5.93M625.24,540a22,22,0,0,0-6.71,15.9,21.73,21.73,0,0,0,6.66,15.65,22.81,22.81,0,0,0,16,6.45,23.07,23.07,0,0,0,16.26-6.61,22.06,22.06,0,0,0,6.72-15.9,21.77,21.77,0,0,0-6.66-15.68,22.79,22.79,0,0,0-16-6.43A23.09,23.09,0,0,0,625.24,540"/></clipPath><linearGradient id="m" x1="33.3" y1="20.43" x2="35.09" y2="20.43" gradientTransform="matrix(0, 24.98, 24.98, 0, -156.11, -745.51)" xlink:href="#c"/><clipPath id="n" transform="translate(-287.02 -446.87)"><path class="a" d="M687.83,658.38c-54.5-62.24-115.36-43.15-115.36-43.15,7.79,2.93,37,20.78,37,20.78,51.31,37.84,73.79,149.06,73.79,149.06,37.18-193.17,97.87-237.15,97.87-237.15-61.91,8.19-93.31,110.46-93.31,110.46"/></clipPath><linearGradient id="o" x1="6.31" y1="3.96" x2="8.1" y2="3.96" gradientTransform="matrix(0, 132.77, 132.77, 0, -136.26, -737.35)" gradientUnits="userSpaceOnUse"><stop offset="0" stop-color="#fcef44"/><stop offset="0.15" stop-color="#efdd40"/><stop offset="0.52" stop-color="#d2b637"/><stop offset="0.82" stop-color="#c09e31"/><stop offset="1" stop-color="#ba952f"/></linearGradient><clipPath id="p" transform="translate(-287.02 -446.87)"><path class="a" d="M688.7,658.65c.3-1,30.83-98.32,89.41-109.33-11.76,10.8-62.3,65.46-94.89,231.29-4.8-20.86-27.94-112-73.27-145.38-1.09-.66-24.68-15.05-34.69-19.78a90.73,90.73,0,0,1,19.9-2.07c23.75,0,59,7.91,92,45.6l1.07,1.22ZM781,547c-57.61,7.62-89.3,96.75-93.57,109.57-33.15-37.18-68.43-45-92.3-45-13.87,0-22.59,2.69-23,2.8l-2.51.79,2.46.92c7.62,2.88,36.56,20.53,36.79,20.67,50.44,37.2,73.22,147.4,73.44,148.51l.91,4.5.87-4.51c36.66-190.44,96.91-236.14,97.52-236.58l2.89-2.11Z"/></clipPath><linearGradient id="q" x1="6.15" y1="3.86" x2="7.94" y2="3.86" gradientTransform="matrix(0, 136.16, 136.16, 0, -136.08, -738.12)" xlink:href="#o"/><clipPath id="r" transform="translate(-287.02 -446.87)"><path class="a" d="M663.56,586.76a19.29,19.29,0,0,0,0,27.73,20.43,20.43,0,0,0,28.41-.15,19.31,19.31,0,0,0,.06-27.75,20.14,20.14,0,0,0-14.09-5.66,20.38,20.38,0,0,0-14.33,5.83"/></clipPath><linearGradient id="s" x1="38.83" y1="23.96" x2="40.61" y2="23.96" gradientTransform="matrix(0, 21.97, 21.97, 0, -135.74, -718.87)" gradientUnits="userSpaceOnUse"><stop offset="0" stop-color="#fcef44"/><stop offset="1" stop-color="#ba952f"/></linearGradient><clipPath id="t" transform="translate(-287.02 -446.87)"><path class="a" d="M664.15,613.84a18.2,18.2,0,0,1-5.59-13.1,18.51,18.51,0,0,1,5.63-13.33,19.41,19.41,0,0,1,13.7-5.57,19.14,19.14,0,0,1,13.45,5.41,18.22,18.22,0,0,1,5.58,13.12,18.5,18.5,0,0,1-5.64,13.33,19.42,19.42,0,0,1-13.68,5.56,19.11,19.11,0,0,1-13.45-5.42m-1.23-27.73a20.31,20.31,0,0,0-6.18,14.64,20,20,0,0,0,6.14,14.39,20.93,20.93,0,0,0,14.72,5.93,21.24,21.24,0,0,0,15-6.08,20.33,20.33,0,0,0,6.18-14.63,20.05,20.05,0,0,0-6.13-14.42A21,21,0,0,0,677.89,580a21.23,21.23,0,0,0-15,6.09"/></clipPath><linearGradient id="u" x1="37.09" y1="22.91" x2="38.88" y2="22.91" gradientTransform="matrix(0, 22.98, 22.98, 0, -135.74, -719.38)" xlink:href="#s"/><clipPath id="v" transform="translate(-287.02 -446.87)"><path class="a" d="M688.15,447.46a131.06,131.06,0,0,0-21,3.36,113.58,113.58,0,0,0-39,17.79c-1.44,1-2.91,2-4.26,3.13l-4.26,3.35-1.83,1.55-2.07,1.82c-1.43,1.28-2.64,2.45-3.92,3.71A143,143,0,0,0,598.19,498,191,191,0,0,0,577.61,533q-4.2,9.16-7.56,18.66-1.69,4.75-3.14,9.58c-.48,1.61-.93,3.23-1.38,4.86l-1.21,4.79a196.1,196.1,0,0,0-5.4,39.93,223.24,223.24,0,0,0,2.48,39.69,287.29,287.29,0,0,0,8.79,38.28q5.63,18.69,13,36.59c4.81,12,10,23.67,14.84,35.46,2.45,5.89,4.83,11.79,6.81,17.82s3.65,12.21,3.65,18.63c.87-6.39-.1-12.93-1.37-19.23s-3-12.55-4.79-18.73c-3.68-12.32-7.69-24.48-11.26-36.7s-7-24.42-9.54-36.74a274.92,274.92,0,0,1-5.41-37.07,210.54,210.54,0,0,1,.24-36.91c.6-6.08,1.45-12.12,2.63-18.09a176,176,0,0,1,4.38-17.56l1.41-4.43c.48-1.44,1-2.87,1.48-4.3,1-2.85,2.09-5.7,3.24-8.51q3.43-8.44,7.63-16.56a178,178,0,0,1,19.52-30.18,118.45,118.45,0,0,1,11.9-12.74c1-.94,2.16-1.95,3.16-2.76l1.57-1.29,1.89-1.48,3.4-2.41c1.17-.88,2.39-1.61,3.6-2.39A89.61,89.61,0,0,1,673,476.49a104.68,104.68,0,0,1,17-2.07c5.78-.29,11.84-.26,17.63,0l4.78.28,1.2.07.29,0h.1l.47.05,1.88.2a51.19,51.19,0,0,1,7.28,1.41,46.73,46.73,0,0,1,13.21,6.18c8.15,5.58,15.07,13.89,20.29,23.63a100.58,100.58,0,0,1,6.66,15.33c.88,2.62,1.69,5.37,2.26,7.81l.18.75.23,1.18.32,2c.22,1.43.52,2.85.67,4.29,1.61,11.48,1.72,23.21,1.39,35.87s-.71,26.39,1,40.46l2.43,19.59,18.25-7.77a258.26,258.26,0,0,1,34.73-12.24,170,170,0,0,1,35.29-5.9l4.34-.15,4,0h1l1.22.07,2.43.14,1.22.08.57,0,.19,0,1.92.21a52.53,52.53,0,0,1,14.7,4.05,56.57,56.57,0,0,1,23.49,19.74,55.84,55.84,0,0,1,7,13.88,37.83,37.83,0,0,1,1.07,3.65c.16.61.31,1.22.42,1.83s.27,1.24.33,1.7.18.84.26,1.79l.13,1.22,0,.3v0l0,.38c.1,1.23.12,2.49.12,3.75-.13,10.2-3.38,21.26-8.52,31.47a100.77,100.77,0,0,1-20.42,27.64,82.69,82.69,0,0,1-6.34,5.41L888.25,726l-2,1.37-3.65,2.34a127.65,127.65,0,0,1-15.67,8.48,111,111,0,0,1-16.67,5.86c-5.82,1.56-12,2.8-18.3,4l-19.27,3.64-19.22,3.78c-12.82,2.47-25.69,5.17-38.5,8.21s-25.59,6.43-38.18,10.52a330.45,330.45,0,0,0-37.23,14.35c-3,1.39-5.87,2.87-8.81,4.3-3.13,1.64-5.94,3.18-8.85,4.91A161,161,0,0,0,645.27,809a136.74,136.74,0,0,0-27.95,28.39,105.31,105.31,0,0,0-10,17.13,62.46,62.46,0,0,0-5.61,18.81,49.74,49.74,0,0,1,3.18-9.17,80.14,80.14,0,0,1,4.46-8.58,101.87,101.87,0,0,1,11.41-15.45,132.77,132.77,0,0,1,29.14-24.48,183.39,183.39,0,0,1,16.64-9.2c1.44-.67,2.84-1.39,4.3-2l4.25-1.89c3-1.22,6-2.54,9-3.67a318.66,318.66,0,0,1,36.47-11.29c12.43-3.07,25-5.68,37.67-7.95s25.43-4.15,38.27-6l9.65-1.38,2.42-.35,2.38-.3,4.84-.61,19.32-2.26c6.53-.8,13.24-1.69,20.09-3.06a123.78,123.78,0,0,0,20.52-5.88,151.78,151.78,0,0,0,19.16-9.08l2.26-1.29,1.13-.64.57-.32.28-.16.47-.29,2.07-1.29,2.48-1.68a103.82,103.82,0,0,0,8.79-6.91,125.88,125.88,0,0,0,26.86-34,112.28,112.28,0,0,0,8.63-20.33A86.34,86.34,0,0,0,952.4,661c.05-2,.05-4,0-6l0-.76-.08-1-.1-1.21c0-.68-.21-2-.35-3.05s-.32-2.11-.5-3.1-.38-2-.61-2.94c-.42-2-.95-3.88-1.54-5.76a84.84,84.84,0,0,0-45.07-51.48,81.52,81.52,0,0,0-22.72-6.62l-2.93-.36-.36,0-.7-.06-.61,0-1.21-.09-2.44-.18-1.21-.09-1.44,0c-1.92-.05-3.88-.12-5.76-.13l-5.41.11a196,196,0,0,0-41.62,6.66q-9.87,2.6-19.4,5.94c0-5.41.07-11,.18-16.76.24-12.88.24-26.84-2-40.69-.22-1.73-.59-3.45-.88-5.17l-.51-2.76-.25-1.18-.37-1.58c-.93-3.77-2-7.15-3.18-10.57a129.14,129.14,0,0,0-8.85-19.71,107.24,107.24,0,0,0-12.65-18.18A83.19,83.19,0,0,0,752.46,459a74.55,74.55,0,0,0-21.6-9.55,78.3,78.3,0,0,0-11.57-2l-2.9-.24-.72-.06-.8,0-1.2,0-4.81-.15q-2.6-.06-5.16-.06c-5.18,0-10.3.18-15.55.59"/></clipPath><linearGradient id="w" x1="3.33" y1="2.35" x2="5.11" y2="2.35" gradientTransform="matrix(0, 238.73, 238.73, 0, -92.13, -793.93)" gradientUnits="userSpaceOnUse"><stop offset="0" stop-color="#f8d943"/><stop offset="0.36" stop-color="#e1bf3b"/><stop offset="1" stop-color="#ba952f"/></linearGradient><clipPath id="x" transform="translate(-287.02 -446.87)"><path class="a" d="M766.85,682.23c-30.28-34.58-64.1-24-64.1-24,4.32,1.63,20.56,11.55,20.56,11.55,28.52,21,41,82.83,41,82.83C785,645.29,818.7,620.85,818.7,620.85c-34.4,4.55-51.85,61.38-51.85,61.38"/></clipPath><linearGradient id="y" x1="11.8" y1="7.63" x2="13.59" y2="7.63" gradientTransform="matrix(0, 73.78, 73.78, 0, -89.28, -696.52)" xlink:href="#c"/><clipPath id="z" transform="translate(-287.02 -446.87)"><path class="a" d="M767.74,682.51c.17-.55,16.51-52.64,47.78-60.12-8.27,8-33.86,38.66-51.26,125.69-3.44-14.59-16-61.06-40.46-79.08-.57-.35-12.14-7.4-18.2-10.46a51.4,51.4,0,0,1,9.76-.89c13.1,0,32.56,4.37,50.79,25.19l1.1,1.26Zm50.84-62.58c-31.79,4.2-49,51.06-52.12,60.47-18.37-20.3-37.87-24.61-51.1-24.61a47.08,47.08,0,0,0-12.89,1.57l-2.57.81,2.52,1c4.19,1.59,20.24,11.37,20.34,11.43,27.89,20.57,40.52,81.65,40.64,82.26l.94,4.63.89-4.63c20.32-105.58,53.68-131,54-131.21l3-2.15Z"/></clipPath><linearGradient id="aa" x1="11.26" y1="7.29" x2="13.05" y2="7.29" gradientTransform="matrix(0, 77.26, 77.26, 0, -89.09, -697.31)" xlink:href="#c"/><clipPath id="ab" transform="translate(-287.02 -446.87)"><path class="a" d="M753.36,642.43a10.72,10.72,0,0,0,0,15.41,11.34,11.34,0,0,0,15.78-.08,10.72,10.72,0,0,0,0-15.42,11.15,11.15,0,0,0-7.82-3.15,11.35,11.35,0,0,0-8,3.24"/></clipPath><linearGradient id="ac" x1="71.97" y1="46.14" x2="73.76" y2="46.14" gradientTransform="matrix(0, 12.21, 12.21, 0, -88.98, -686.25)" xlink:href="#c"/><clipPath id="ad" transform="translate(-287.02 -446.87)"><path class="a" d="M754,657.17a9.69,9.69,0,0,1-3-7,9.86,9.86,0,0,1,3-7.1,10.4,10.4,0,0,1,7.32-3A10.22,10.22,0,0,1,768.5,643a9.65,9.65,0,0,1,3,7,9.82,9.82,0,0,1-3,7.09,10.35,10.35,0,0,1-7.3,3,10.19,10.19,0,0,1-7.18-2.9m-1.28-15.4a11.69,11.69,0,0,0-3.56,8.43,11.53,11.53,0,0,0,3.54,8.31,12.08,12.08,0,0,0,8.48,3.42,12.22,12.22,0,0,0,8.6-3.5,11.73,11.73,0,0,0,3.57-8.44,11.57,11.57,0,0,0-3.54-8.32,12.07,12.07,0,0,0-8.47-3.41,12.26,12.26,0,0,0-8.62,3.51"/></clipPath><linearGradient id="ae" x1="66.28" y1="42.51" x2="68.06" y2="42.51" gradientTransform="matrix(0, 13.25, 13.25, 0, -88.98, -686.78)" xlink:href="#c"/></defs><title>Helping Hands Healthcare Services</title><text class="b" transform="translate(0 625.37)"><tspan class="c">HAN</tspan><tspan class="d" x="289.99" y="0">D</tspan><tspan class="c" x="381.82" y="0">Y</tspan><tspan class="e" x="469.12" y="0">HANDS</tspan></text><g class="f"><g class="g"><rect class="h" x="297.8" y="247.81" width="376.65" height="271.23"/></g><g class="i"><rect class="j" x="296.33" y="242.8" width="380.05" height="244.1"/></g><g class="k"><rect class="l" x="239.61" y="51.44" width="227.4" height="258.43"/></g><g class="m"><rect class="n" x="236.76" y="50.04" width="233.77" height="264.64"/></g><g class="o"><rect class="p" x="330.28" y="87.42" width="48.08" height="44.89"/></g><g class="q"><rect class="r" x="331.49" y="86.49" width="45.67" height="44.62"/></g><g class="s"><rect class="t" x="285.45" y="101.05" width="208.67" height="237.14"/></g><g class="u"><rect class="v" x="282.67" y="99.68" width="214.88" height="243.2"/></g><g class="w"><rect class="x" x="368.65" y="134.06" width="44.12" height="41.2"/></g><g class="y"><rect class="z" x="369.7" y="133.15" width="42.02" height="41.05"/></g><g class="aa"><rect class="ab" x="271.51" width="393.92" height="426.41"/></g><g class="ac"><rect class="ad" x="415.72" y="173.98" width="115.95" height="131.78"/></g><g class="ae"><rect class="af" x="412.88" y="172.58" width="122.3" height="137.99"/></g><g class="ag"><rect class="ah" x="461.96" y="192.32" width="24.51" height="22.89"/></g><g class="ai"><rect class="aj" x="462.12" y="191.39" width="24.2" height="23.67"/></g></g><text class="ak" transform="translate(63.3 721.87)">HEA<tspan class="al" x="139.25" y="0">L</tspan><tspan class="am" x="170.84" y="0">TH</tspan><tspan class="an" x="262.77" y="0">C</tspan><tspan x="310.33" y="0">ARE SE</tspan><tspan class="ao" x="551.24" y="0">R</tspan><tspan x="595.38" y="0">VICES</tspan></text></svg>